<?xml version="1.0" encoding="UTF-8" standalone="no"?>
<!-- Created with Inkscape (http://www.inkscape.org/) -->

<svg
   version="1.1"
   id="svg2"
   width="495.65332"
   height="156"
   viewBox="0 0 495.65332 156"
   sodipodi:docname="ubclogo12.eps"
   xmlns:inkscape="http://www.inkscape.org/namespaces/inkscape"
   xmlns:sodipodi="http://sodipodi.sourceforge.net/DTD/sodipodi-0.dtd"
   xmlns="http://www.w3.org/2000/svg"
   xmlns:svg="http://www.w3.org/2000/svg">
  <defs
     id="defs6" />
  <sodipodi:namedview
     id="namedview4"
     pagecolor="#ffffff"
     bordercolor="#000000"
     borderopacity="0.25"
     inkscape:showpageshadow="2"
     inkscape:pageopacity="0.0"
     inkscape:pagecheckerboard="0"
     inkscape:deskcolor="#d1d1d1" />
  <g
     id="g8"
     inkscape:groupmode="layer"
     inkscape:label="ink_ext_XXXXXX"
     transform="matrix(1.3333333,0,0,-1.3333333,0,156)">
    <g
       id="g10"
       transform="scale(0.1)">
      <path
         d="m 495.035,671.832 26.391,-191.437 86.726,144.929 -36.8,-159.41 93.507,89.453 -48.691,-118.097 77.793,58.058 C 657.75,396.781 626.195,341.535 495.035,296.633 v 0 0 C 363.879,341.535 332.32,396.781 296.113,495.328 l 77.793,-58.058 -48.691,118.097 93.5,-89.453 -36.801,159.41 86.734,-144.929 26.391,191.437 h -0.004"
         style="fill:#0e1531;fill-opacity:1;fill-rule:nonzero;stroke:none"
         id="path12" />
      <path
         d="m 357.637,735.973 c -39.742,0 -63.473,21.269 -63.473,56.996 v 85.543 h 32.949 V 794.32 c 0,-20.757 10.914,-32.175 30.778,-32.175 20.371,0 31.172,10.937 31.172,31.585 v 84.782 h 33.167 v -84.969 c 0,-35.52 -24.75,-57.57 -64.593,-57.57"
         style="fill:#0e1531;fill-opacity:1;fill-rule:nonzero;stroke:none"
         id="path14" />
      <path
         d="m 496.27,738.34 h -46.012 v 140.172 h 46.695 c 34.141,0 52.949,-13.25 52.949,-37.227 0,-12.617 -6.582,-22.324 -19.14,-28.277 16.836,-5.942 25.39,-17.067 25.39,-33.141 0,-26.797 -21.25,-41.527 -59.882,-41.527 m -14.18,23.414 h 14.18 c 12.816,0 28.046,3.269 28.046,18.894 0,16.106 -15.488,19.528 -28.515,19.528 H 482.09 Z m 0,60.449 h 11.973 c 16.035,0 24.906,6.016 24.906,16.918 0,10.731 -7.735,15.957 -23.598,15.957 H 482.09 v -32.875"
         style="fill:#0e1531;fill-opacity:1;fill-rule:nonzero;stroke:none"
         id="path16" />
      <path
         d="m 648.438,735.973 c -45.372,0 -74.668,28.332 -74.668,72.265 0,43.418 30.371,72.617 75.562,72.617 16.758,0 30.863,-3.3 43.109,-10.097 l 1.075,-0.598 -4.922,-28.543 -2.168,1.446 c -12.031,8.078 -23.477,11.804 -35.977,11.804 -26.953,0 -43.066,-17.371 -43.066,-46.453 0,-28.547 16.66,-46.269 43.512,-46.269 12.718,0 25.238,3.82 38.265,11.66 l 2.149,1.289 4.644,-26.621 -1.031,-0.606 c -13.379,-7.656 -29.883,-11.894 -46.484,-11.894"
         style="fill:#0e1531;fill-opacity:1;fill-rule:nonzero;stroke:none"
         id="path18" />
      <path
         d="M 495.035,266.934 C 340.191,310.801 266.285,413.031 266.285,558.773 V 903.758 H 723.789 V 558.773 c 0,-145.742 -73.91,-247.972 -228.754,-291.839 z m -247.5,655.574 V 556.426 c 0,-153.848 83.711,-265.235 247.5,-308.926 163.789,43.691 247.5,155.078 247.5,308.926 v 366.082 h -495"
         style="fill:#0e1531;fill-opacity:1;fill-rule:nonzero;stroke:none"
         id="path20" />
      <path
         d="m 495.043,688.695 c 34.508,0 39.18,-14.004 66.973,-13.828 27.695,-0.176 32.441,13.828 66.953,13.828 34.508,0 39.258,-14.004 66.972,-13.828 v 32.141 c -27.714,-0.188 -32.464,13.64 -66.972,13.64 -34.512,0 -39.258,-13.828 -66.953,-13.64 -27.793,-0.188 -32.465,13.64 -66.973,13.64 -34.512,0 -39.18,-13.828 -66.973,-13.64 -27.695,-0.188 -32.445,13.64 -66.953,13.64 -34.515,0 -39.277,-13.828 -66.972,-13.64 v -32.141 c 27.695,-0.176 32.457,13.828 66.972,13.828 34.508,0 39.258,-14.004 66.953,-13.828 27.793,-0.176 32.461,13.828 66.973,13.828"
         style="fill:#0e1531;fill-opacity:1;fill-rule:nonzero;stroke:none"
         id="path22" />
      <path
         d="m 516.91,630.617 c 16.649,-3.984 24.57,-11.59 45.106,-11.461 27.695,-0.172 32.441,13.828 66.953,13.828 34.508,0 39.258,-14 66.972,-13.828 v 32.141 c -27.714,-0.188 -32.464,13.641 -66.972,13.641 -34.512,0 -39.258,-13.829 -66.953,-13.641 -22.313,-0.149 -29.735,8.726 -49.645,12.234 l 4.539,-32.914"
         style="fill:#0e1531;fill-opacity:1;fill-rule:nonzero;stroke:none"
         id="path24" />
      <path
         d="m 428.07,619.156 c 20.528,-0.129 28.45,7.473 45.09,11.461 l 4.539,32.914 c -19.902,-3.511 -27.324,-12.383 -49.629,-12.234 -27.695,-0.188 -32.445,13.641 -66.953,13.641 -34.515,0 -39.277,-13.829 -66.972,-13.641 v -32.141 c 27.695,-0.172 32.457,13.828 66.972,13.828 34.508,0 39.258,-14 66.953,-13.828"
         style="fill:#0e1531;fill-opacity:1;fill-rule:nonzero;stroke:none"
         id="path26" />
      <path
         d="m 524.91,572.563 c 9.414,-3.235 16.653,-7.184 27.832,-8.59 l 19.293,32.234 c -3.015,-0.414 -6.308,-0.644 -10.019,-0.621 -19.094,-0.125 -27.274,6.359 -41.711,10.43 l 4.605,-33.453"
         style="fill:#0e1531;fill-opacity:1;fill-rule:nonzero;stroke:none"
         id="path28" />
      <path
         d="m 613.262,576.125 c 4.511,0.711 9.644,1.152 15.707,1.152 34.508,0 39.258,-14.004 66.972,-13.828 v 32.137 c -27.714,-0.184 -32.464,13.644 -66.972,13.644 -2.918,0 -5.606,-0.109 -8.129,-0.289 l -7.578,-32.816"
         style="fill:#0e1531;fill-opacity:1;fill-rule:nonzero;stroke:none"
         id="path30" />
      <path
         d="m 376.813,576.125 -7.579,32.816 c -2.519,0.18 -5.207,0.289 -8.117,0.289 -34.515,0 -39.277,-13.828 -66.972,-13.644 v -32.137 c 27.695,-0.176 32.457,13.828 66.972,13.828 6.055,0 11.184,-0.441 15.696,-1.152"
         style="fill:#0e1531;fill-opacity:1;fill-rule:nonzero;stroke:none"
         id="path32" />
      <path
         d="m 437.328,563.973 c 11.184,1.398 18.418,5.347 27.832,8.586 l 4.61,33.453 c -14.434,-4.074 -22.614,-10.551 -41.7,-10.426 -3.718,-0.023 -7.015,0.211 -10.035,0.621 l 19.293,-32.234"
         style="fill:#0e1531;fill-opacity:1;fill-rule:nonzero;stroke:none"
         id="path34" />
      <path
         d="m 1041.88,738.34 h -24.23 v 102.152 h -38.045 v 21.594 h 98.925 l 3.24,-21.594 h -39.89 v -102.152 0"
         style="fill:#0e1531;fill-opacity:1;fill-rule:nonzero;stroke:none"
         id="path36" />
      <path
         d="m 1229.08,738.34 h -24.24 v 53.351 h -53.28 V 738.34 h -23.98 v 123.746 h 23.98 v -48.328 h 53.28 v 48.328 h 24.24 v -123.746 0"
         style="fill:#0e1531;fill-opacity:1;fill-rule:nonzero;stroke:none"
         id="path38" />
      <path
         d="m 1377.68,738.34 h -79.53 V 862.086 H 1376 v -21.375 h -53.85 v -27.395 h 42.88 l 3.51,-21.378 h -46.39 v -32.219 h 55.53 v -21.379 0"
         style="fill:#0e1531;fill-opacity:1;fill-rule:nonzero;stroke:none"
         id="path40" />
      <path
         d="m 1564.18,735.973 c -31.62,0 -50.49,18.965 -50.49,50.746 v 75.367 h 23.98 v -74.41 c 0,-19.883 9.48,-30.824 26.73,-30.824 17.68,0 27,10.453 27,30.324 v 74.91 h 24.22 v -74.41 c 0,-32.399 -19.24,-51.703 -51.44,-51.703 v 0"
         style="fill:#0e1531;fill-opacity:1;fill-rule:nonzero;stroke:none"
         id="path42" />
      <path
         d="m 1782.62,738.34 h -20.8 l -58.87,86.723 V 738.34 h -22.07 v 123.746 h 23.46 l 56.19,-83.07 v 83.07 h 22.09 v -123.746 0"
         style="fill:#0e1531;fill-opacity:1;fill-rule:nonzero;stroke:none"
         id="path44" />
      <path
         d="m 1875.63,738.34 h -24.24 v 123.746 h 24.24 v -123.746 0"
         style="fill:#0e1531;fill-opacity:1;fill-rule:nonzero;stroke:none"
         id="path46" />
      <path
         d="m 1992.87,736.449 h -21.76 l -47.74,122.672 24.24,5.285 35.31,-96.593 34.57,94.273 h 24.41 l -49.03,-125.637 v 0"
         style="fill:#0e1531;fill-opacity:1;fill-rule:nonzero;stroke:none"
         id="path48" />
      <path
         d="m 2167.07,738.34 h -79.53 v 123.746 h 77.85 v -21.375 h -53.83 v -27.395 h 42.86 l 3.54,-21.378 h -46.4 v -32.219 h 55.51 v -21.379 0"
         style="fill:#0e1531;fill-opacity:1;fill-rule:nonzero;stroke:none"
         id="path50" />
      <path
         d="m 2251.83,804.469 h 14.61 c 14.93,0 23.16,6.64 23.16,18.847 0,14.606 -12.61,17.657 -23.16,17.657 h -14.61 v -36.504 z m 46.61,-67.696 -35.26,48.45 h -11.35 V 738.34 h -24.03 v 123.746 h 38.85 c 29.39,0 46.94,-14.391 46.94,-38.555 0,-16.875 -8.5,-28.906 -24.62,-34.996 l 34.34,-46.14 -24.87,-5.622 v 0"
         style="fill:#0e1531;fill-opacity:1;fill-rule:nonzero;stroke:none"
         id="path52" />
      <path
         d="m 2411.46,736.707 c -13.1,0 -28.11,3.234 -42.06,9.168 l -0.93,0.371 3.58,22.031 1.47,-0.781 c 12.39,-6.48 27.64,-10.644 38.92,-10.644 13.62,0 22.44,6.019 22.44,15.25 0,9.218 -5.76,12.777 -23.1,18.711 -25.95,9.062 -39.1,17.246 -39.1,36.824 0,21.261 17.22,36.144 41.87,36.144 12.53,0 25.21,-2.613 35.66,-7.285 l 0.86,-0.41 -3.5,-22.469 -1.53,0.789 c -11.55,6.02 -22.08,8.942 -32.17,8.942 -10.79,0 -18.91,-5.614 -18.91,-13.086 0,-8.254 5.62,-11.403 24.78,-18 24.27,-8.465 37.46,-16.946 37.46,-37.52 0,-22.719 -18.38,-38.035 -45.74,-38.035 v 0"
         style="fill:#0e1531;fill-opacity:1;fill-rule:nonzero;stroke:none"
         id="path54" />
      <path
         d="m 2541.32,738.34 h -24.24 v 123.746 h 24.24 v -123.746 0"
         style="fill:#0e1531;fill-opacity:1;fill-rule:nonzero;stroke:none"
         id="path56" />
      <path
         d="m 2650.28,738.34 h -24.19 v 102.152 h -38.02 v 21.594 h 98.9 l 3.24,-21.594 h -39.93 v -102.152 0"
         style="fill:#0e1531;fill-opacity:1;fill-rule:nonzero;stroke:none"
         id="path58" />
      <path
         d="m 2779.72,738.34 h -24.23 v 47.777 l -44.26,72.981 24.59,5.269 32.11,-56.289 31.12,54.008 h 26.59 l -45.92,-75.719 v -48.027 0"
         style="fill:#0e1531;fill-opacity:1;fill-rule:nonzero;stroke:none"
         id="path60" />
      <path
         d="m 1039.2,596.102 c -20.99,0 -35.16,-17.391 -35.16,-43.254 0,-25.352 14.79,-43.75 35.16,-43.75 20.86,0 34.91,17.492 34.91,43.496 0,25.183 -14.69,43.508 -34.91,43.508 z m 0,-107.629 c -29.65,0 -59.606,22.027 -59.606,64.121 0,42.265 29.956,64.344 59.606,64.344 29.5,0 59.32,-21.981 59.32,-64.09 0,-42.262 -29.82,-64.375 -59.32,-64.375 v 0"
         style="fill:#0e1531;fill-opacity:1;fill-rule:nonzero;stroke:none"
         id="path62" />
      <path
         d="m 1178.16,490.84 h -23.94 v 123.746 h 75.88 v -21.375 h -51.94 v -29.313 h 40.76 l 3.52,-21.367 h -44.28 v -51.691 0"
         style="fill:#0e1531;fill-opacity:1;fill-rule:nonzero;stroke:none"
         id="path64" />
      <path
         d="m 1384.11,565.309 h 15.76 c 13.8,0 20.74,5.132 20.74,15.269 0,5.824 -2.09,13.598 -20.04,13.598 h -16.46 v -28.867 z m 0,-54.301 H 1402 c 16.08,0 23.88,5.472 23.88,16.73 0,11.867 -7.92,17.91 -23.63,17.91 h -18.14 v -34.64 z m 17.67,-20.168 h -40.72 v 123.746 h 40.47 c 26.07,0 41.61,-12 41.61,-32.078 0,-11.863 -5.15,-20.621 -15.39,-26.086 13.88,-5.043 20.96,-14.684 20.96,-28.684 0,-23.761 -16.7,-36.898 -46.93,-36.898 v 0"
         style="fill:#0e1531;fill-opacity:1;fill-rule:nonzero;stroke:none"
         id="path66" />
      <path
         d="m 1531.24,556.969 h 14.56 c 14.9,0 23.14,6.64 23.14,18.847 0,14.606 -12.57,17.657 -23.14,17.657 h -14.56 v -36.504 z m 46.51,-67.696 -35.25,48.45 h -11.26 V 490.84 h -24.02 v 123.746 h 38.81 c 29.39,0 46.9,-14.391 46.9,-38.555 0,-16.875 -8.5,-28.906 -24.58,-34.996 l 34.32,-46.14 -24.92,-5.622 v 0"
         style="fill:#0e1531;fill-opacity:1;fill-rule:nonzero;stroke:none"
         id="path68" />
      <path
         d="m 1679.92,490.84 h -24.28 v 123.746 h 24.28 v -123.746 0"
         style="fill:#0e1531;fill-opacity:1;fill-rule:nonzero;stroke:none"
         id="path70" />
      <path
         d="m 1789.06,490.84 h -24.19 v 102.152 h -38.05 v 21.594 h 98.93 l 3.21,-21.594 h -39.9 v -102.152 0"
         style="fill:#0e1531;fill-opacity:1;fill-rule:nonzero;stroke:none"
         id="path72" />
      <path
         d="m 1897.47,490.84 h -24.24 v 123.746 h 24.24 v -123.746 0"
         style="fill:#0e1531;fill-opacity:1;fill-rule:nonzero;stroke:none"
         id="path74" />
      <path
         d="m 1997.4,489.203 c -13.14,0 -28.09,3.238 -42.1,9.172 l -0.9,0.371 3.52,22.031 1.49,-0.781 c 12.46,-6.48 27.74,-10.644 38.93,-10.644 13.62,0 22.46,6.019 22.46,15.25 0,9.218 -5.77,12.777 -23.12,18.711 -25.89,9.062 -39.11,17.246 -39.11,36.824 0,21.261 17.28,36.144 41.96,36.144 12.49,0 25.12,-2.613 35.6,-7.285 l 0.88,-0.41 -3.5,-22.469 -1.51,0.789 c -11.55,6.02 -22.11,8.942 -32.23,8.942 -10.74,0 -18.87,-5.614 -18.87,-13.086 0,-8.254 5.58,-11.403 24.78,-18 24.25,-8.465 37.41,-16.946 37.41,-37.52 0,-22.719 -18.36,-38.039 -45.69,-38.039 v 0"
         style="fill:#0e1531;fill-opacity:1;fill-rule:nonzero;stroke:none"
         id="path76" />
      <path
         d="m 2197.29,490.84 h -24.24 v 53.351 H 2119.8 V 490.84 h -23.98 v 123.746 h 23.98 v -48.328 h 53.25 v 48.328 h 24.24 v -123.746 0"
         style="fill:#0e1531;fill-opacity:1;fill-rule:nonzero;stroke:none"
         id="path78" />
      <path
         d="m 2383.11,488.473 c -35.63,0 -59.59,25.66 -59.59,63.902 0,38.621 23.96,64.563 59.59,64.563 14.13,0 25.47,-2.977 35.61,-9.485 l 0.67,-0.449 -3.81,-22.633 -1.64,1.199 c -9.78,7.356 -19.3,10.782 -30.09,10.782 -22.29,0 -35.61,-16.411 -35.61,-43.758 0,-26.969 13.77,-43.719 36.08,-43.719 10.67,0 21.79,3.813 32.06,11.004 l 1.6,1.129 3.31,-21.149 -0.68,-0.398 c -10.74,-7.078 -24.02,-10.988 -37.5,-10.988 v 0"
         style="fill:#0e1531;fill-opacity:1;fill-rule:nonzero;stroke:none"
         id="path80" />
      <path
         d="m 2525.34,596.102 c -21.03,0 -35.15,-17.391 -35.15,-43.254 0,-25.352 14.78,-43.75 35.15,-43.75 20.82,0 34.87,17.492 34.87,43.496 0,25.183 -14.67,43.508 -34.87,43.508 z m 0,-107.629 c -29.66,0 -59.6,22.027 -59.6,64.121 0,42.265 29.94,64.344 59.6,64.344 29.45,0 59.32,-21.981 59.32,-64.09 0,-42.262 -29.87,-64.375 -59.32,-64.375 v 0"
         style="fill:#0e1531;fill-opacity:1;fill-rule:nonzero;stroke:none"
         id="path82" />
      <path
         d="m 2710.86,490.84 h -73.2 v 123.746 h 23.99 V 511.992 h 45.77 l 3.44,-21.152 v 0"
         style="fill:#0e1531;fill-opacity:1;fill-rule:nonzero;stroke:none"
         id="path84" />
      <path
         d="m 2804,488.473 c -31.6,0 -50.48,18.965 -50.48,50.746 v 75.367 h 23.99 v -74.41 c 0,-19.883 9.46,-30.824 26.75,-30.824 17.63,0 26.92,10.453 26.92,30.347 v 74.887 h 24.3 v -74.41 c 0,-32.399 -19.26,-51.703 -51.48,-51.703 v 0"
         style="fill:#0e1531;fill-opacity:1;fill-rule:nonzero;stroke:none"
         id="path86" />
      <path
         d="m 2999.06,490.387 h -23.2 l -33.01,93.828 -6.86,-93.375 h -22.05 l 9.75,123.746 h 32.62 l 32.39,-94.793 32.82,94.793 h 31.92 l 9.75,-123.746 h -23.99 l -7.06,93.375 -33.08,-93.828 v 0"
         style="fill:#0e1531;fill-opacity:1;fill-rule:nonzero;stroke:none"
         id="path88" />
      <path
         d="m 3151.05,565.309 h 15.75 c 13.76,0 20.72,5.132 20.72,15.269 0,5.824 -2.02,13.598 -20.02,13.598 h -16.45 v -28.867 z m 0,-54.301 h 17.84 c 16.1,0 23.94,5.472 23.94,16.73 0,11.867 -7.97,17.91 -23.67,17.91 h -18.11 v -34.64 z m 17.64,-20.168 H 3128 v 123.746 h 40.44 c 26.13,0 41.7,-12 41.7,-32.078 0,-11.863 -5.22,-20.621 -15.44,-26.086 13.84,-5.043 20.92,-14.684 20.92,-28.684 0,-23.761 -16.65,-36.898 -46.93,-36.898 v 0"
         style="fill:#0e1531;fill-opacity:1;fill-rule:nonzero;stroke:none"
         id="path90" />
      <path
         d="m 3300.59,490.84 h -24.25 v 123.746 h 24.25 v -123.746 0"
         style="fill:#0e1531;fill-opacity:1;fill-rule:nonzero;stroke:none"
         id="path92" />
      <path
         d="m 3390.21,542.598 h 35.93 c -2.19,6.304 -11.23,30.601 -17.87,48.515 l -18.06,-48.515 z m 55.99,-54.086 -11.97,32.718 h -51.89 l -11.26,-30.39 h -23.7 l 48.8,125.18 h 25.64 l 48.15,-122.172 -23.77,-5.336 v 0"
         style="fill:#0e1531;fill-opacity:1;fill-rule:nonzero;stroke:none"
         id="path94" />
    </g>
  </g>
</svg>
