<?xml version="1.0" encoding="UTF-8" standalone="no"?>
<!-- Created with Inkscape (http://www.inkscape.org/) -->

<svg
   version="1.1"
   id="svg2"
   width="656.89331"
   height="82.813332"
   viewBox="0 0 656.89331 82.813332"
   sodipodi:docname="ubclogo7.eps"
   xmlns:inkscape="http://www.inkscape.org/namespaces/inkscape"
   xmlns:sodipodi="http://sodipodi.sourceforge.net/DTD/sodipodi-0.dtd"
   xmlns="http://www.w3.org/2000/svg"
   xmlns:svg="http://www.w3.org/2000/svg">
  <defs
     id="defs6" />
  <sodipodi:namedview
     id="namedview4"
     pagecolor="#ffffff"
     bordercolor="#000000"
     borderopacity="0.25"
     inkscape:showpageshadow="2"
     inkscape:pageopacity="0.0"
     inkscape:pagecheckerboard="0"
     inkscape:deskcolor="#d1d1d1" />
  <g
     id="g8"
     inkscape:groupmode="layer"
     inkscape:label="ink_ext_XXXXXX"
     transform="matrix(1.3333333,0,0,-1.3333333,0,82.813333)">
    <g
       id="g10"
       transform="scale(0.1)">
      <path
         d="m 309.82,247.5 h -24.234 v 102.152 h -38.051 v 21.59 h 98.926 l 3.242,-21.59 H 309.82 V 247.5 v 0"
         style="fill:#ffffff;fill-opacity:1;fill-rule:nonzero;stroke:none"
         id="path12" />
      <path
         d="m 497.012,247.5 h -24.231 v 53.344 H 419.492 V 247.5 h -23.98 v 123.742 h 23.98 v -48.328 h 53.289 v 48.328 h 24.231 V 247.5 v 0"
         style="fill:#ffffff;fill-opacity:1;fill-rule:nonzero;stroke:none"
         id="path14" />
      <path
         d="m 645.613,247.5 h -79.527 v 123.742 h 77.852 v -21.375 h -53.856 v -27.39 h 42.887 l 3.515,-21.379 h -46.402 v -32.223 h 55.531 v -21.375 0"
         style="fill:#ffffff;fill-opacity:1;fill-rule:nonzero;stroke:none"
         id="path16" />
      <path
         d="m 832.129,245.133 c -31.633,0 -50.496,18.965 -50.496,50.746 v 75.363 h 23.976 v -74.406 c 0,-19.883 9.485,-30.832 26.735,-30.832 17.676,0 27.004,10.461 27.004,30.324 v 74.914 h 24.211 v -74.406 c 0,-32.398 -19.239,-51.703 -51.43,-51.703 v 0"
         style="fill:#ffffff;fill-opacity:1;fill-rule:nonzero;stroke:none"
         id="path18" />
      <path
         d="m 1050.56,247.5 h -20.8 l -58.865,86.723 V 247.5 h -22.067 v 123.742 h 23.453 l 56.189,-83.07 v 83.07 h 22.09 V 247.5 v 0"
         style="fill:#ffffff;fill-opacity:1;fill-rule:nonzero;stroke:none"
         id="path20" />
      <path
         d="m 1143.57,247.5 h -24.23 v 123.742 h 24.23 V 247.5 v 0"
         style="fill:#ffffff;fill-opacity:1;fill-rule:nonzero;stroke:none"
         id="path22" />
      <path
         d="m 1260.82,245.609 h -21.76 l -47.74,122.672 24.23,5.282 35.32,-96.59 34.57,94.269 h 24.41 l -49.03,-125.633 v 0"
         style="fill:#ffffff;fill-opacity:1;fill-rule:nonzero;stroke:none"
         id="path24" />
      <path
         d="m 1435.02,247.5 h -79.53 v 123.742 h 77.85 v -21.375 h -53.83 v -27.39 h 42.87 l 3.53,-21.379 h -46.4 v -32.223 h 55.51 v -21.375 0"
         style="fill:#ffffff;fill-opacity:1;fill-rule:nonzero;stroke:none"
         id="path26" />
      <path
         d="m 1519.78,313.629 h 14.61 c 14.93,0 23.16,6.641 23.16,18.848 0,14.601 -12.6,17.656 -23.16,17.656 h -14.61 v -36.504 z m 46.61,-67.703 -35.26,48.453 h -11.35 V 247.5 h -24.02 v 123.742 h 38.85 c 29.38,0 46.94,-14.387 46.94,-38.551 0,-16.882 -8.5,-28.91 -24.62,-34.996 l 34.34,-46.144 -24.88,-5.625 v 0"
         style="fill:#ffffff;fill-opacity:1;fill-rule:nonzero;stroke:none"
         id="path28" />
      <path
         d="m 1679.42,245.863 c -13.11,0 -28.11,3.239 -42.06,9.168 l -0.94,0.367 3.59,22.032 1.46,-0.782 c 12.39,-6.472 27.65,-10.644 38.93,-10.644 13.62,0 22.44,6.023 22.44,15.25 0,9.219 -5.76,12.781 -23.1,18.711 -25.96,9.066 -39.11,17.25 -39.11,36.832 0,21.258 17.23,36.141 41.87,36.141 12.53,0 25.21,-2.614 35.67,-7.286 l 0.86,-0.41 -3.51,-22.465 -1.52,0.786 c -11.55,6.023 -22.09,8.941 -32.17,8.941 -10.79,0 -18.91,-5.609 -18.91,-13.086 0,-8.25 5.62,-11.402 24.78,-17.996 24.27,-8.469 37.46,-16.945 37.46,-37.52 0,-22.726 -18.38,-38.039 -45.74,-38.039 v 0"
         style="fill:#ffffff;fill-opacity:1;fill-rule:nonzero;stroke:none"
         id="path30" />
      <path
         d="m 1809.28,247.5 h -24.24 v 123.742 h 24.24 V 247.5 v 0"
         style="fill:#ffffff;fill-opacity:1;fill-rule:nonzero;stroke:none"
         id="path32" />
      <path
         d="m 1918.25,247.5 h -24.2 v 102.152 h -38.02 v 21.59 h 98.9 l 3.23,-21.59 h -39.91 V 247.5 v 0"
         style="fill:#ffffff;fill-opacity:1;fill-rule:nonzero;stroke:none"
         id="path34" />
      <path
         d="m 2047.68,247.5 h -24.23 v 47.773 l -44.25,72.989 24.58,5.261 32.12,-56.289 31.12,54.008 h 26.59 l -45.93,-75.715 v -48.027 0"
         style="fill:#ffffff;fill-opacity:1;fill-rule:nonzero;stroke:none"
         id="path36" />
      <path
         d="m 2248.38,352.758 c -21,0 -35.16,-17.387 -35.16,-43.25 0,-25.356 14.79,-43.75 35.16,-43.75 20.86,0 34.9,17.488 34.9,43.496 0,25.18 -14.69,43.504 -34.9,43.504 z m 0,-107.625 c -29.66,0 -59.61,22.023 -59.61,64.121 0,42.266 29.95,64.344 59.61,64.344 29.5,0 59.32,-21.985 59.32,-64.09 0,-42.262 -29.82,-64.375 -59.32,-64.375 v 0"
         style="fill:#ffffff;fill-opacity:1;fill-rule:nonzero;stroke:none"
         id="path38" />
      <path
         d="m 2387.34,247.5 h -23.94 v 123.742 h 75.88 v -21.375 h -51.94 v -29.316 h 40.77 l 3.5,-21.367 h -44.27 v -51.684 0"
         style="fill:#ffffff;fill-opacity:1;fill-rule:nonzero;stroke:none"
         id="path40" />
      <path
         d="m 2593.29,321.969 h 15.76 c 13.8,0 20.74,5.129 20.74,15.265 0,5.821 -2.08,13.602 -20.03,13.602 h -16.47 v -28.867 z m 0,-54.305 h 17.89 c 16.08,0 23.88,5.477 23.88,16.734 0,11.86 -7.92,17.911 -23.62,17.911 h -18.15 v -34.645 z m 17.68,-20.164 h -40.73 v 123.742 h 40.47 c 26.07,0 41.61,-12 41.61,-32.078 0,-11.859 -5.14,-20.621 -15.39,-26.086 13.88,-5.043 20.96,-14.68 20.96,-28.68 0,-23.765 -16.7,-36.898 -46.92,-36.898 v 0"
         style="fill:#ffffff;fill-opacity:1;fill-rule:nonzero;stroke:none"
         id="path42" />
      <path
         d="m 2740.43,313.629 h 14.55 c 14.9,0 23.15,6.641 23.15,18.848 0,14.601 -12.57,17.656 -23.15,17.656 h -14.55 v -36.504 z m 46.51,-67.703 -35.26,48.453 h -11.25 V 247.5 h -24.02 v 123.742 h 38.8 c 29.39,0 46.91,-14.387 46.91,-38.551 0,-16.882 -8.51,-28.91 -24.58,-34.996 l 34.32,-46.144 -24.92,-5.625 v 0"
         style="fill:#ffffff;fill-opacity:1;fill-rule:nonzero;stroke:none"
         id="path44" />
      <path
         d="m 2889.1,247.5 h -24.27 v 123.742 h 24.27 V 247.5 v 0"
         style="fill:#ffffff;fill-opacity:1;fill-rule:nonzero;stroke:none"
         id="path46" />
      <path
         d="m 2998.25,247.5 h -24.19 v 102.152 h -38.04 v 21.59 h 98.91 l 3.22,-21.59 h -39.9 V 247.5 v 0"
         style="fill:#ffffff;fill-opacity:1;fill-rule:nonzero;stroke:none"
         id="path48" />
      <path
         d="m 3106.66,247.5 h -24.24 v 123.742 h 24.24 V 247.5 v 0"
         style="fill:#ffffff;fill-opacity:1;fill-rule:nonzero;stroke:none"
         id="path50" />
      <path
         d="m 3206.6,245.863 c -13.15,0 -28.09,3.239 -42.11,9.168 l -0.9,0.367 3.52,22.032 1.5,-0.782 c 12.44,-6.472 27.73,-10.644 38.93,-10.644 13.61,0 22.45,6.023 22.45,15.25 0,9.219 -5.77,12.781 -23.11,18.711 -25.9,9.066 -39.11,17.25 -39.11,36.832 0,21.258 17.27,36.141 41.95,36.141 12.49,0 25.13,-2.614 35.61,-7.286 l 0.88,-0.41 -3.51,-22.465 -1.51,0.786 c -11.55,6.023 -22.11,8.941 -32.23,8.941 -10.73,0 -18.87,-5.609 -18.87,-13.086 0,-8.25 5.58,-11.402 24.78,-17.996 24.25,-8.469 37.41,-16.945 37.41,-37.52 0,-22.726 -18.36,-38.039 -45.68,-38.039 v 0"
         style="fill:#ffffff;fill-opacity:1;fill-rule:nonzero;stroke:none"
         id="path52" />
      <path
         d="m 3406.47,247.5 h -24.22 v 53.344 h -53.26 V 247.5 h -23.97 v 123.742 h 23.97 v -48.328 h 53.26 v 48.328 h 24.22 V 247.5 v 0"
         style="fill:#ffffff;fill-opacity:1;fill-rule:nonzero;stroke:none"
         id="path54" />
      <path
         d="m 3592.3,245.133 c -35.62,0 -59.59,25.656 -59.59,63.898 0,38.625 23.97,64.567 59.59,64.567 14.14,0 25.48,-2.981 35.62,-9.485 l 0.67,-0.445 -3.81,-22.641 -1.65,1.203 c -9.77,7.356 -19.29,10.782 -30.08,10.782 -22.29,0 -35.61,-16.41 -35.61,-43.758 0,-26.977 13.77,-43.723 36.08,-43.723 10.67,0 21.79,3.813 32.06,11.004 l 1.6,1.129 3.31,-21.152 -0.69,-0.395 c -10.73,-7.074 -24.01,-10.984 -37.5,-10.984 v 0"
         style="fill:#ffffff;fill-opacity:1;fill-rule:nonzero;stroke:none"
         id="path56" />
      <path
         d="m 3734.55,352.758 c -21.03,0 -35.17,-17.387 -35.17,-43.25 0,-25.356 14.8,-43.75 35.17,-43.75 20.82,0 34.86,17.488 34.86,43.496 0,25.18 -14.67,43.504 -34.86,43.504 z m 0,-107.625 c -29.66,0 -59.61,22.023 -59.61,64.121 0,42.266 29.95,64.344 59.61,64.344 29.44,0 59.31,-21.985 59.31,-64.09 0,-42.262 -29.87,-64.375 -59.31,-64.375 v 0"
         style="fill:#ffffff;fill-opacity:1;fill-rule:nonzero;stroke:none"
         id="path58" />
      <path
         d="m 3920.07,247.5 h -73.21 v 123.742 h 24 v -102.59 h 45.77 l 3.44,-21.152 v 0"
         style="fill:#ffffff;fill-opacity:1;fill-rule:nonzero;stroke:none"
         id="path60" />
      <path
         d="m 4013.21,245.133 c -31.61,0 -50.5,18.965 -50.5,50.746 v 75.363 h 24.01 v -74.406 c 0,-19.883 9.46,-30.832 26.75,-30.832 17.63,0 26.92,10.461 26.92,30.351 v 74.887 h 24.3 v -74.406 c 0,-32.398 -19.26,-51.703 -51.48,-51.703 v 0"
         style="fill:#ffffff;fill-opacity:1;fill-rule:nonzero;stroke:none"
         id="path62" />
      <path
         d="m 4208.27,247.039 h -23.2 l -33.01,93.832 -6.87,-93.371 h -22.05 l 9.76,123.742 h 32.62 l 32.39,-94.793 32.82,94.793 h 31.92 L 4272.4,247.5 h -23.99 l -7.06,93.371 -33.08,-93.832 v 0"
         style="fill:#ffffff;fill-opacity:1;fill-rule:nonzero;stroke:none"
         id="path64" />
      <path
         d="m 4360.27,321.969 h 15.75 c 13.75,0 20.72,5.129 20.72,15.265 0,5.821 -2.03,13.602 -20.02,13.602 h -16.45 v -28.867 z m 0,-54.305 h 17.84 c 16.09,0 23.93,5.477 23.93,16.734 0,11.86 -7.96,17.911 -23.66,17.911 h -18.11 v -34.645 z m 17.64,-20.164 h -40.7 v 123.742 h 40.45 c 26.12,0 41.69,-12 41.69,-32.078 0,-11.859 -5.21,-20.621 -15.43,-26.086 13.83,-5.043 20.91,-14.68 20.91,-28.68 0,-23.765 -16.64,-36.898 -46.92,-36.898 v 0"
         style="fill:#ffffff;fill-opacity:1;fill-rule:nonzero;stroke:none"
         id="path66" />
      <path
         d="m 4509.8,247.5 h -24.24 v 123.742 h 24.24 V 247.5 v 0"
         style="fill:#ffffff;fill-opacity:1;fill-rule:nonzero;stroke:none"
         id="path68" />
      <path
         d="m 4599.42,299.258 h 35.94 c -2.2,6.297 -11.24,30.601 -17.87,48.515 l -18.07,-48.515 z m 56,-54.086 -11.98,32.719 h -51.88 L 4580.3,247.5 h -23.71 l 48.8,125.18 h 25.65 l 48.15,-122.172 -23.77,-5.336 v 0"
         style="fill:#ffffff;fill-opacity:1;fill-rule:nonzero;stroke:none"
         id="path70" />
    </g>
  </g>
</svg>
