<?xml version="1.0" encoding="UTF-8" standalone="no"?>
<!-- Created with Inkscape (http://www.inkscape.org/) -->

<svg
   version="1.1"
   id="svg2"
   width="753.84003"
   height="156"
   viewBox="0 0 753.84003 156"
   sodipodi:docname="ubclogo2.eps"
   xmlns:inkscape="http://www.inkscape.org/namespaces/inkscape"
   xmlns:sodipodi="http://sodipodi.sourceforge.net/DTD/sodipodi-0.dtd"
   xmlns="http://www.w3.org/2000/svg"
   xmlns:svg="http://www.w3.org/2000/svg">
  <defs
     id="defs6" />
  <sodipodi:namedview
     id="namedview4"
     pagecolor="#ffffff"
     bordercolor="#000000"
     borderopacity="0.25"
     inkscape:showpageshadow="2"
     inkscape:pageopacity="0.0"
     inkscape:pagecheckerboard="0"
     inkscape:deskcolor="#d1d1d1" />
  <g
     id="g8"
     inkscape:groupmode="layer"
     inkscape:label="ink_ext_XXXXXX"
     transform="matrix(1.3333333,0,0,-1.3333333,0,156)">
    <g
       id="g10"
       transform="scale(0.1)">
      <path
         d="m 495.035,671.832 26.391,-191.43 86.726,144.922 -36.797,-159.414 93.504,89.461 -48.691,-118.094 77.793,58.055 C 657.75,396.789 626.191,341.535 495.035,296.633 v 0 0 C 363.879,341.535 332.32,396.789 296.113,495.332 l 77.793,-58.055 -48.691,118.094 93.5,-89.461 -36.801,159.414 86.734,-144.922 26.387,191.43 v 0"
         style="fill:#0e1531;fill-opacity:1;fill-rule:nonzero;stroke:none"
         id="path12" />
      <path
         d="m 357.637,735.973 c -39.742,0 -63.473,21.269 -63.473,57.004 v 85.535 h 32.949 V 794.32 c 0,-20.757 10.914,-32.172 30.778,-32.172 20.371,0 31.172,10.934 31.172,31.582 v 84.782 h 33.164 v -84.969 c 0,-35.52 -24.747,-57.57 -64.59,-57.57"
         style="fill:#0e1531;fill-opacity:1;fill-rule:nonzero;stroke:none"
         id="path14" />
      <path
         d="m 496.27,738.348 h -46.012 v 140.164 h 46.695 c 34.141,0 52.949,-13.25 52.949,-37.227 0,-12.617 -6.582,-22.324 -19.14,-28.269 16.836,-5.95 25.39,-17.075 25.39,-33.149 0,-26.797 -21.25,-41.519 -59.882,-41.519 m -14.18,23.406 h 14.18 c 12.816,0 28.046,3.269 28.046,18.894 0,16.106 -15.488,19.528 -28.515,19.528 H 482.09 Z m 0,60.453 h 11.973 c 16.035,0 24.902,6.012 24.902,16.922 0,10.723 -7.731,15.949 -23.594,15.949 H 482.09 v -32.871"
         style="fill:#0e1531;fill-opacity:1;fill-rule:nonzero;stroke:none"
         id="path16" />
      <path
         d="m 648.438,735.973 c -45.372,0 -74.668,28.332 -74.668,72.269 0,43.414 30.371,72.613 75.562,72.613 16.758,0 30.863,-3.3 43.109,-10.097 l 1.075,-0.598 -4.926,-28.543 -2.164,1.446 c -12.031,8.078 -23.477,11.804 -35.977,11.804 -26.957,0 -43.07,-17.371 -43.07,-46.453 0,-28.547 16.664,-46.266 43.516,-46.266 12.718,0 25.234,3.817 38.265,11.657 l 2.149,1.289 4.644,-26.621 -1.031,-0.606 c -13.379,-7.656 -29.883,-11.894 -46.484,-11.894"
         style="fill:#0e1531;fill-opacity:1;fill-rule:nonzero;stroke:none"
         id="path18" />
      <path
         d="M 495.035,266.934 C 340.191,310.801 266.285,413.039 266.285,558.77 v 344.988 h 457.5 V 558.77 c 0,-145.731 -73.914,-247.969 -228.75,-291.836 z m -247.5,655.574 V 556.426 c 0,-153.848 83.711,-265.235 247.5,-308.926 163.789,43.691 247.5,155.078 247.5,308.926 v 366.082 h -495"
         style="fill:#0e1531;fill-opacity:1;fill-rule:nonzero;stroke:none"
         id="path20" />
      <path
         d="m 495.043,688.695 c 34.508,0 39.176,-14.004 66.973,-13.828 27.695,-0.176 32.441,13.828 66.949,13.828 34.512,0 39.262,-14.004 66.976,-13.828 v 32.141 c -27.714,-0.188 -32.464,13.64 -66.976,13.64 -34.508,0 -39.254,-13.828 -66.949,-13.64 -27.797,-0.188 -32.465,13.64 -66.973,13.64 -34.512,0 -39.18,-13.828 -66.973,-13.64 -27.695,-0.188 -32.445,13.64 -66.953,13.64 -34.515,0 -39.277,-13.828 -66.972,-13.64 v -32.141 c 27.695,-0.176 32.457,13.828 66.972,13.828 34.508,0 39.258,-14.004 66.953,-13.828 27.793,-0.176 32.461,13.828 66.973,13.828"
         style="fill:#0e1531;fill-opacity:1;fill-rule:nonzero;stroke:none"
         id="path22" />
      <path
         d="m 516.91,630.617 c 16.649,-3.984 24.57,-11.59 45.106,-11.461 27.695,-0.172 32.441,13.828 66.949,13.828 34.512,0 39.262,-14 66.976,-13.828 v 32.141 c -27.714,-0.188 -32.464,13.641 -66.976,13.641 -34.508,0 -39.254,-13.829 -66.949,-13.641 -22.313,-0.149 -29.735,8.726 -49.645,12.238 l 4.539,-32.918"
         style="fill:#0e1531;fill-opacity:1;fill-rule:nonzero;stroke:none"
         id="path24" />
      <path
         d="m 428.07,619.156 c 20.528,-0.129 28.453,7.477 45.09,11.461 l 4.539,32.914 c -19.902,-3.511 -27.324,-12.383 -49.629,-12.234 -27.695,-0.188 -32.445,13.641 -66.953,13.641 -34.515,0 -39.277,-13.829 -66.972,-13.641 v -32.141 c 27.695,-0.172 32.457,13.828 66.972,13.828 34.508,0 39.258,-14 66.953,-13.828"
         style="fill:#0e1531;fill-opacity:1;fill-rule:nonzero;stroke:none"
         id="path26" />
      <path
         d="m 524.91,572.559 c 9.414,-3.231 16.653,-7.188 27.832,-8.582 l 19.293,32.23 c -3.015,-0.41 -6.305,-0.644 -10.019,-0.621 -19.094,-0.125 -27.274,6.359 -41.711,10.43 l 4.605,-33.457"
         style="fill:#0e1531;fill-opacity:1;fill-rule:nonzero;stroke:none"
         id="path28" />
      <path
         d="m 613.262,576.125 c 4.511,0.711 9.644,1.152 15.703,1.152 34.512,0 39.262,-14.004 66.976,-13.828 v 32.137 c -27.714,-0.184 -32.464,13.644 -66.976,13.644 -2.914,0 -5.606,-0.109 -8.129,-0.289 l -7.574,-32.816"
         style="fill:#0e1531;fill-opacity:1;fill-rule:nonzero;stroke:none"
         id="path30" />
      <path
         d="m 376.813,576.125 -7.579,32.816 c -2.519,0.18 -5.207,0.289 -8.117,0.289 -34.515,0 -39.277,-13.828 -66.972,-13.644 v -32.137 c 27.695,-0.176 32.457,13.828 66.972,13.828 6.055,0 11.184,-0.441 15.696,-1.152"
         style="fill:#0e1531;fill-opacity:1;fill-rule:nonzero;stroke:none"
         id="path32" />
      <path
         d="m 437.328,563.977 c 11.184,1.394 18.418,5.351 27.832,8.582 l 4.61,33.453 c -14.434,-4.074 -22.614,-10.551 -41.7,-10.426 -3.718,-0.023 -7.015,0.211 -10.039,0.621 l 19.297,-32.23"
         style="fill:#0e1531;fill-opacity:1;fill-rule:nonzero;stroke:none"
         id="path34" />
      <path
         d="m 1041.88,738.348 h -24.24 V 840.5 h -38.046 v 21.586 h 98.926 l 3.24,-21.586 h -39.88 v -102.152 0"
         style="fill:#0e1531;fill-opacity:1;fill-rule:nonzero;stroke:none"
         id="path36" />
      <path
         d="m 1229.07,738.348 h -24.23 v 53.343 h -53.29 v -53.343 h -23.98 v 123.738 h 23.98 v -48.328 h 53.29 v 48.328 h 24.23 v -123.738 0"
         style="fill:#0e1531;fill-opacity:1;fill-rule:nonzero;stroke:none"
         id="path38" />
      <path
         d="m 1377.67,738.348 h -79.53 V 862.086 H 1376 v -21.371 h -53.86 V 813.32 h 42.89 l 3.51,-21.375 h -46.4 v -32.226 h 55.53 v -21.371 0"
         style="fill:#0e1531;fill-opacity:1;fill-rule:nonzero;stroke:none"
         id="path40" />
      <path
         d="m 1564.18,735.973 c -31.63,0 -50.49,18.965 -50.49,50.754 v 75.359 h 23.98 v -74.402 c 0,-19.891 9.48,-30.832 26.73,-30.832 17.68,0 27.01,10.461 27.01,30.324 v 74.91 h 24.21 v -74.402 c 0,-32.407 -19.24,-51.711 -51.44,-51.711 v 0"
         style="fill:#0e1531;fill-opacity:1;fill-rule:nonzero;stroke:none"
         id="path42" />
      <path
         d="m 1782.62,738.348 h -20.8 l -58.87,86.715 v -86.715 h -22.07 v 123.738 h 23.46 l 56.19,-83.07 v 83.07 h 22.09 v -123.738 0"
         style="fill:#0e1531;fill-opacity:1;fill-rule:nonzero;stroke:none"
         id="path44" />
      <path
         d="m 1875.63,738.348 h -24.23 v 123.738 h 24.23 v -123.738 0"
         style="fill:#0e1531;fill-opacity:1;fill-rule:nonzero;stroke:none"
         id="path46" />
      <path
         d="m 1992.88,736.449 h -21.76 l -47.75,122.672 24.24,5.289 35.31,-96.594 34.58,94.27 h 24.41 l -49.03,-125.637 v 0"
         style="fill:#0e1531;fill-opacity:1;fill-rule:nonzero;stroke:none"
         id="path48" />
      <path
         d="m 2167.08,738.348 h -79.53 v 123.738 h 77.85 v -21.371 h -53.83 V 813.32 h 42.86 l 3.53,-21.375 h -46.39 v -32.226 h 55.51 v -21.371 0"
         style="fill:#0e1531;fill-opacity:1;fill-rule:nonzero;stroke:none"
         id="path50" />
      <path
         d="m 2251.84,804.469 h 14.61 c 14.93,0 23.16,6.644 23.16,18.851 0,14.602 -12.6,17.653 -23.16,17.653 h -14.61 v -36.504 z m 46.61,-67.696 -35.26,48.45 h -11.35 v -46.875 h -24.02 v 123.738 h 38.85 c 29.38,0 46.94,-14.387 46.94,-38.555 0,-16.875 -8.51,-28.906 -24.62,-34.996 l 34.34,-46.14 -24.88,-5.622 v 0"
         style="fill:#0e1531;fill-opacity:1;fill-rule:nonzero;stroke:none"
         id="path52" />
      <path
         d="m 2411.48,736.707 c -13.11,0 -28.12,3.234 -42.07,9.168 l -0.93,0.371 3.59,22.031 1.46,-0.781 c 12.39,-6.48 27.65,-10.644 38.93,-10.644 13.61,0 22.43,6.019 22.43,15.25 0,9.218 -5.75,12.777 -23.1,18.711 -25.95,9.062 -39.1,17.246 -39.1,36.824 0,21.261 17.23,36.148 41.88,36.148 12.52,0 25.21,-2.613 35.66,-7.285 l 0.86,-0.41 -3.51,-22.473 -1.53,0.793 c -11.54,6.02 -22.08,8.938 -32.17,8.938 -10.79,0 -18.9,-5.614 -18.9,-13.082 0,-8.258 5.62,-11.407 24.78,-18.004 24.27,-8.465 37.46,-16.946 37.46,-37.52 0,-22.719 -18.38,-38.035 -45.74,-38.035 v 0"
         style="fill:#0e1531;fill-opacity:1;fill-rule:nonzero;stroke:none"
         id="path54" />
      <path
         d="m 2541.33,738.348 h -24.23 v 123.738 h 24.23 v -123.738 0"
         style="fill:#0e1531;fill-opacity:1;fill-rule:nonzero;stroke:none"
         id="path56" />
      <path
         d="m 2650.31,738.348 h -24.2 V 840.5 h -38.03 v 21.586 h 98.91 l 3.23,-21.586 h -39.91 v -102.152 0"
         style="fill:#0e1531;fill-opacity:1;fill-rule:nonzero;stroke:none"
         id="path58" />
      <path
         d="m 2779.74,738.348 h -24.23 v 47.769 l -44.26,72.985 24.59,5.269 32.11,-56.289 31.13,54.004 h 26.59 l -45.93,-75.711 v -48.027 0"
         style="fill:#0e1531;fill-opacity:1;fill-rule:nonzero;stroke:none"
         id="path60" />
      <path
         d="m 2980.44,843.602 c -21,0 -35.17,-17.383 -35.17,-43.25 0,-25.356 14.8,-43.754 35.17,-43.754 20.86,0 34.9,17.492 34.9,43.5 0,25.179 -14.69,43.504 -34.9,43.504 z m 0,-107.629 c -29.66,0 -59.61,22.031 -59.61,64.125 0,42.265 29.95,64.34 59.61,64.34 29.5,0 59.32,-21.977 59.32,-64.086 0,-42.258 -29.82,-64.379 -59.32,-64.379 v 0"
         style="fill:#0e1531;fill-opacity:1;fill-rule:nonzero;stroke:none"
         id="path62" />
      <path
         d="m 3119.39,738.348 h -23.93 v 123.738 h 75.88 v -21.371 h -51.95 v -29.317 h 40.77 l 3.51,-21.367 h -44.28 v -51.683 0"
         style="fill:#0e1531;fill-opacity:1;fill-rule:nonzero;stroke:none"
         id="path64" />
      <path
         d="m 3325.34,812.813 h 15.77 c 13.79,0 20.75,5.128 20.75,15.265 0,5.824 -2.09,13.598 -20.04,13.598 h -16.48 v -28.863 z m 0,-54.301 h 17.9 c 16.08,0 23.88,5.472 23.88,16.726 0,11.867 -7.92,17.918 -23.62,17.918 h -18.16 v -34.644 z m 17.68,-20.164 h -40.72 v 123.738 h 40.46 c 26.08,0 41.62,-11.996 41.62,-32.074 0,-11.864 -5.14,-20.625 -15.39,-26.09 13.87,-5.043 20.96,-14.684 20.96,-28.684 0,-23.761 -16.71,-36.89 -46.93,-36.89 v 0"
         style="fill:#0e1531;fill-opacity:1;fill-rule:nonzero;stroke:none"
         id="path66" />
      <path
         d="m 3472.48,804.469 h 14.56 c 14.9,0 23.14,6.644 23.14,18.851 0,14.602 -12.56,17.653 -23.14,17.653 h -14.56 v -36.504 z m 46.51,-67.696 -35.25,48.45 h -11.26 v -46.875 h -24.01 v 123.738 h 38.81 c 29.38,0 46.9,-14.387 46.9,-38.555 0,-16.875 -8.51,-28.906 -24.59,-34.996 l 34.33,-46.14 -24.93,-5.622 v 0"
         style="fill:#0e1531;fill-opacity:1;fill-rule:nonzero;stroke:none"
         id="path68" />
      <path
         d="m 3621.16,738.348 h -24.27 v 123.738 h 24.27 v -123.738 0"
         style="fill:#0e1531;fill-opacity:1;fill-rule:nonzero;stroke:none"
         id="path70" />
      <path
         d="m 3730.31,738.348 h -24.2 V 840.5 h -38.04 v 21.586 h 98.92 l 3.22,-21.586 h -39.9 v -102.152 0"
         style="fill:#0e1531;fill-opacity:1;fill-rule:nonzero;stroke:none"
         id="path72" />
      <path
         d="m 3838.72,738.348 h -24.24 v 123.738 h 24.24 v -123.738 0"
         style="fill:#0e1531;fill-opacity:1;fill-rule:nonzero;stroke:none"
         id="path74" />
      <path
         d="m 3938.65,736.707 c -13.14,0 -28.09,3.234 -42.1,9.168 l -0.9,0.371 3.52,22.031 1.49,-0.781 c 12.46,-6.48 27.74,-10.644 38.93,-10.644 13.62,0 22.46,6.019 22.46,15.25 0,9.218 -5.77,12.777 -23.12,18.711 -25.89,9.062 -39.11,17.246 -39.11,36.824 0,21.261 17.28,36.148 41.96,36.148 12.49,0 25.13,-2.613 35.6,-7.285 l 0.88,-0.41 -3.5,-22.473 -1.51,0.793 c -11.55,6.02 -22.11,8.938 -32.23,8.938 -10.74,0 -18.87,-5.614 -18.87,-13.082 0,-8.258 5.58,-11.407 24.78,-18.004 24.25,-8.465 37.41,-16.946 37.41,-37.52 0,-22.719 -18.36,-38.035 -45.69,-38.035 v 0"
         style="fill:#0e1531;fill-opacity:1;fill-rule:nonzero;stroke:none"
         id="path76" />
      <path
         d="m 4138.54,738.348 h -24.23 v 53.343 h -53.26 v -53.343 h -23.98 v 123.738 h 23.98 v -48.328 h 53.26 v 48.328 h 24.23 v -123.738 0"
         style="fill:#0e1531;fill-opacity:1;fill-rule:nonzero;stroke:none"
         id="path78" />
      <path
         d="m 4324.37,735.973 c -35.63,0 -59.59,25.66 -59.59,63.902 0,38.621 23.96,64.563 59.59,64.563 14.13,0 25.47,-2.977 35.6,-9.481 l 0.68,-0.449 -3.82,-22.633 -1.63,1.195 c -9.78,7.36 -19.3,10.782 -30.09,10.782 -22.29,0 -35.62,-16.407 -35.62,-43.754 0,-26.973 13.78,-43.723 36.09,-43.723 10.67,0 21.79,3.813 32.06,11.004 l 1.59,1.133 3.32,-21.153 -0.68,-0.398 c -10.74,-7.07 -24.03,-10.988 -37.5,-10.988 v 0"
         style="fill:#0e1531;fill-opacity:1;fill-rule:nonzero;stroke:none"
         id="path80" />
      <path
         d="m 4466.6,843.602 c -21.03,0 -35.15,-17.383 -35.15,-43.25 0,-25.356 14.78,-43.754 35.15,-43.754 20.82,0 34.87,17.492 34.87,43.5 0,25.179 -14.67,43.504 -34.87,43.504 z m 0,-107.629 c -29.66,0 -59.61,22.031 -59.61,64.125 0,42.265 29.95,64.34 59.61,64.34 29.44,0 59.32,-21.977 59.32,-64.086 0,-42.258 -29.88,-64.379 -59.32,-64.379 v 0"
         style="fill:#0e1531;fill-opacity:1;fill-rule:nonzero;stroke:none"
         id="path82" />
      <path
         d="m 4652.12,738.348 h -73.2 v 123.738 h 23.99 V 759.492 h 45.78 l 3.43,-21.144 v 0"
         style="fill:#0e1531;fill-opacity:1;fill-rule:nonzero;stroke:none"
         id="path84" />
      <path
         d="m 4745.27,735.973 c -31.61,0 -50.49,18.965 -50.49,50.754 v 75.359 h 24 v -74.402 c 0,-19.891 9.46,-30.832 26.75,-30.832 17.63,0 26.92,10.461 26.92,30.351 v 74.883 h 24.29 v -74.402 c 0,-32.407 -19.26,-51.711 -51.47,-51.711 v 0"
         style="fill:#0e1531;fill-opacity:1;fill-rule:nonzero;stroke:none"
         id="path86" />
      <path
         d="m 4940.33,737.887 h -23.2 l -33.01,93.832 -6.87,-93.371 h -22.04 l 9.75,123.738 h 32.62 l 32.39,-94.793 32.82,94.793 h 31.92 l 9.75,-123.738 h -23.99 l -7.07,93.371 -33.07,-93.832 v 0"
         style="fill:#0e1531;fill-opacity:1;fill-rule:nonzero;stroke:none"
         id="path88" />
      <path
         d="m 5092.32,812.813 h 15.75 c 13.76,0 20.73,5.128 20.73,15.265 0,5.824 -2.03,13.598 -20.02,13.598 h -16.46 v -28.863 z m 0,-54.301 h 17.84 c 16.1,0 23.94,5.472 23.94,16.726 0,11.867 -7.96,17.918 -23.67,17.918 h -18.11 v -34.644 z m 17.64,-20.164 h -40.69 v 123.738 h 40.44 c 26.13,0 41.7,-11.996 41.7,-32.074 0,-11.864 -5.21,-20.625 -15.43,-26.09 13.82,-5.043 20.91,-14.684 20.91,-28.684 0,-23.761 -16.65,-36.89 -46.93,-36.89 v 0"
         style="fill:#0e1531;fill-opacity:1;fill-rule:nonzero;stroke:none"
         id="path90" />
      <path
         d="m 5241.87,738.348 h -24.26 v 123.738 h 24.26 v -123.738 0"
         style="fill:#0e1531;fill-opacity:1;fill-rule:nonzero;stroke:none"
         id="path92" />
      <path
         d="m 5331.48,790.098 h 35.94 c -2.21,6.304 -11.24,30.605 -17.87,48.515 l -18.07,-48.515 z m 56,-54.086 -11.98,32.718 h -51.89 l -11.25,-30.382 h -23.71 l 48.8,125.172 h 25.64 l 48.16,-122.172 -23.77,-5.336 v 0"
         style="fill:#0e1531;fill-opacity:1;fill-rule:nonzero;stroke:none"
         id="path94" />
    </g>
  </g>
</svg>
